<svg width="96" height="96" viewBox="0 0 96 96" fill="none" xmlns="http://www.w3.org/2000/svg">
<path d="M44 2.3094C46.4752 0.880338 49.5248 0.880339 52 2.3094L85.5692 21.6906C88.0444 23.1197 89.5692 25.7607 89.5692 28.6188V67.3812C89.5692 70.2393 88.0444 72.8803 85.5692 74.3094L52 93.6906C49.5248 95.1197 46.4752 95.1197 44 93.6906L10.4308 74.3094C7.95557 72.8803 6.43078 70.2393 6.43078 67.3812V28.6188C6.43078 25.7607 7.95557 23.1197 10.4308 21.6906L44 2.3094Z" fill="white"/>
<mask id="mask0_6_51" style="mask-type:alpha" maskUnits="userSpaceOnUse" x="11" y="6" width="74" height="84">
<path d="M84.8097 65.7942C84.8075 67.9333 83.6666 69.9094 81.8152 70.9809L50.9571 88.8401C49.0999 89.915 46.81 89.9162 44.9516 88.8433L14.1528 71.0616C12.2945 69.9887 11.1506 68.005 11.1528 65.8591L11.1903 30.2056C11.1926 28.0665 12.3335 26.0904 14.1848 25.0189L45.043 7.15968C46.9002 6.08481 49.1901 6.0836 51.0484 7.15653L81.8472 24.9382C83.7056 26.0111 84.8495 27.9948 84.8472 30.1407L84.8097 65.7942Z" fill="url(#paint0_linear_6_51)"/>
</mask>
<g mask="url(#mask0_6_51)">
<path d="M89.4883 68.5556C89.4861 70.6668 88.36 72.6172 86.5328 73.6747L50.9063 94.2936C49.0732 95.3545 46.8132 95.3557 44.979 94.2968L9.41736 73.7652C7.5832 72.7063 6.4542 70.7484 6.45642 68.6305L6.49969 27.4676C6.50191 25.3564 7.62797 23.406 9.45524 22.3484L45.0817 1.72949C46.9148 0.66861 49.1748 0.667422 51.009 1.72638L86.5707 22.2579C88.4048 23.3169 89.5338 25.2747 89.5316 27.3926L89.4883 68.5556Z" fill="url(#paint1_linear_6_51)"/>
<path d="M48.0477 0L86.5826 22.2482C88.4177 23.3077 89.5469 25.267 89.5435 27.386L89.4787 68.5514C89.4754 70.6614 88.3496 72.6102 86.5236 73.6672L47.943 96L48.0477 0Z" fill="url(#paint2_linear_6_51)"/>
<path d="M38.405 70.9377H32.3959V40.1172C32.3959 35.6804 33.8174 32.0621 36.6604 29.2622C39.5465 26.4623 43.1002 25.0623 47.3216 25.0623C51.9737 25.0623 55.4628 26.2469 57.7889 28.616C60.1581 30.9421 61.3426 33.8066 61.3426 37.2096C61.3426 41.5602 59.3181 44.6832 55.269 46.5785V46.837C60.8257 48.4308 63.6041 52.286 63.6041 58.4027C63.6041 66.7594 58.672 70.9377 48.8077 70.9377H40.731V65.2517H48.7431C51.7153 65.2517 53.8906 64.6487 55.269 63.4426C56.6474 62.2364 57.3366 60.298 57.3366 57.6274C57.3366 55.3013 56.5828 53.5137 55.0752 52.2645C53.6106 51.0153 51.6076 50.3907 49.0661 50.3907H42.6694V45.0278H46.8047C49.1308 45.0278 51.1122 44.4032 52.7491 43.154C54.429 41.8617 55.269 40.1387 55.269 37.985C55.269 35.9173 54.6229 34.1943 53.3306 32.8159C52.0814 31.4375 50.0353 30.7483 47.1924 30.7483C44.6078 30.7483 42.4971 31.5667 40.8603 33.2036C39.2234 34.7974 38.405 37.145 38.405 40.2464V70.9377Z" fill="white"/>
<path fill-rule="evenodd" clip-rule="evenodd" d="M27.8336 75.5V40.1172C27.8336 34.6085 29.6439 29.7689 33.4591 26.0116L33.4713 25.9996L33.4836 25.9876C37.2668 22.3174 41.9796 20.5 47.3216 20.5C52.683 20.5 57.5363 21.8672 61.0145 25.3893C64.2622 28.5924 65.905 32.6301 65.905 37.2096C65.905 40.1139 65.2203 42.8782 63.6525 45.2966C63.4997 45.5322 63.3404 45.7617 63.1749 45.9852C63.9278 46.6573 64.6136 47.4126 65.2216 48.2563C67.3124 51.1575 68.1664 54.662 68.1664 58.4027C68.1664 63.5008 66.6263 68.0893 62.854 71.285C59.2267 74.358 54.2753 75.5 48.8077 75.5H27.8336ZM59.8809 49.169C58.6806 48.169 57.19 47.4053 55.4091 46.8778C55.4041 46.8763 55.3992 46.8749 55.3942 46.8734C55.3526 46.8611 55.3109 46.849 55.269 46.837V46.5785C55.292 46.5677 55.3149 46.5569 55.3378 46.5461C55.3428 46.5437 55.3479 46.5413 55.3529 46.5389C55.3535 46.5386 55.3541 46.5383 55.3547 46.5381C55.7692 46.3409 56.1622 46.1306 56.5337 45.9073C57.6701 45.2242 58.6051 44.419 59.3386 43.4916C60.6746 41.8026 61.3426 39.7087 61.3426 37.2096C61.3426 33.8066 60.1581 30.9421 57.7889 28.616C55.4628 26.2469 51.9737 25.0623 47.3216 25.0623C43.1002 25.0623 39.5465 26.4623 36.6604 29.2622C33.8174 32.0621 32.3959 35.6804 32.3959 40.1172V70.9377H38.405V40.2464C38.405 37.145 39.2234 34.7974 40.8603 33.2036C42.4971 31.5667 44.6078 30.7483 47.1924 30.7483C50.0353 30.7483 52.0814 31.4375 53.3306 32.8159C54.6229 34.1943 55.269 35.9173 55.269 37.985C55.269 39.6734 54.7528 41.0972 53.7202 42.2562C53.619 42.3698 53.5129 42.4809 53.4017 42.5894C53.2005 42.7859 52.9829 42.9741 52.7491 43.154C52.1193 43.6346 51.4385 44.0228 50.7067 44.3185C49.5365 44.7914 48.2358 45.0278 46.8047 45.0278H42.6694V50.3907H49.0661C51.6076 50.3907 53.6106 51.0153 55.0752 52.2645C56.5828 53.5137 57.3366 55.3013 57.3366 57.6274C57.3366 60.298 56.6474 62.2364 55.269 63.4426C53.8906 64.6487 51.7153 65.2517 48.7431 65.2517H40.731V70.9377H48.8077C58.672 70.9377 63.6041 66.7594 63.6041 58.4027C63.6041 54.3146 62.363 51.2367 59.8809 49.169ZM42.9673 60.6894H48.7431C51.2561 60.6894 52.101 60.1523 52.2647 60.0091L52.2649 60.0089C52.2773 59.9985 52.7743 59.5811 52.7743 57.6274C52.7743 56.3768 52.4259 55.9943 52.1643 55.7776L52.1393 55.7568L52.1145 55.7356C51.7089 55.3897 50.8744 54.953 49.0661 54.953H42.9673V60.6894ZM42.9673 40.4655H46.8047C48.2621 40.4655 49.2352 40.0942 49.9742 39.5325C50.5052 39.1222 50.7067 38.7459 50.7067 37.985C50.7067 36.9573 50.4239 36.386 50.0022 35.9362L49.9759 35.9081L49.95 35.8796C49.9348 35.8628 49.4252 35.3106 47.1924 35.3106C45.6636 35.3106 44.7644 35.7515 44.0863 36.4296L44.0648 36.4511L44.043 36.4723C43.5675 36.9354 42.9673 37.9224 42.9673 40.2464V40.4655Z" fill="white" fill-opacity="0.2"/>
</g>
<defs>
<linearGradient id="paint0_linear_6_51" x1="46.5397" y1="89.7601" x2="47.4839" y2="7.79495" gradientUnits="userSpaceOnUse">
<stop stop-color="#051937"/>
<stop offset="0.286458" stop-color="#004D7A"/>
<stop offset="0.65625" stop-color="#008793"/>
<stop offset="1" stop-color="#00BF72"/>
</linearGradient>
<linearGradient id="paint1_linear_6_51" x1="46.3535" y1="95.9968" x2="47.4598" y2="1.79125" gradientUnits="userSpaceOnUse">
<stop stop-color="#051937"/>
<stop offset="0.286458" stop-color="#004D7A"/>
<stop offset="0.65625" stop-color="#008793"/>
<stop offset="1" stop-color="#00BF72"/>
</linearGradient>
<linearGradient id="paint2_linear_6_51" x1="7.36145" y1="93.5486" x2="7.64063" y2="2.98705" gradientUnits="userSpaceOnUse">
<stop stop-color="#57006B"/>
<stop offset="0.171875" stop-color="#8A0067"/>
<stop offset="0.333333" stop-color="#B8005F"/>
<stop offset="0.489583" stop-color="#DB0054"/>
<stop offset="0.645833" stop-color="#F63741"/>
<stop offset="0.802083" stop-color="#FF692E"/>
<stop offset="1" stop-color="#FF970F"/>
</linearGradient>
</defs>
</svg>
